<svg width="871" height="751" viewBox="0 0 871 751" fill="none" xmlns="http://www.w3.org/2000/svg">
<path d="M433.845 730.046C660.52 730.046 844.277 638.57 844.277 525.729C844.277 412.888 660.52 321.412 433.845 321.412C207.169 321.412 23.4121 412.888 23.4121 525.729C23.4121 638.57 207.169 730.046 433.845 730.046Z" fill="#F0F0F0"/>
<path d="M669.555 596.624C642.641 583.226 642.641 561.507 669.555 548.109C696.469 534.711 740.106 534.711 767.02 548.109C793.934 561.507 793.934 583.226 767.02 596.624C740.106 610.021 696.469 610.021 669.555 596.624Z" fill="#E0E0E0"/>
<path d="M122.149 598.486L51.3542 563.249C47.365 561.267 47.365 558.037 51.3542 556.055L463.146 351.062C465.384 350.084 467.857 349.574 470.366 349.574C472.875 349.574 475.349 350.084 477.587 351.062L548.399 386.299C552.388 388.281 552.388 391.51 548.399 393.493L136.608 598.486C134.367 599.464 131.89 599.974 129.378 599.974C126.867 599.974 124.39 599.464 122.149 598.486Z" fill="#E0E0E0"/>
<path d="M376.62 535.673L437.486 505.333C443.757 502.209 446.893 498.123 446.893 494.023C446.893 489.922 446.893 486.723 446.893 486.723L383.763 456.022C381.999 455.039 380.531 453.71 379.477 452.144C378.423 450.577 377.815 448.818 377.7 447.01V382.289L271.438 435.25V499.941C271.561 501.747 272.173 503.503 273.226 505.069C274.279 506.634 275.743 507.964 277.501 508.953L331.224 535.628C343.731 541.922 364.078 541.922 376.62 535.673Z" fill="#472A89"/>
<g opacity="0.6">
<path d="M376.62 535.673L437.486 505.333C443.757 502.209 446.893 498.123 446.893 494.023C446.893 489.922 446.893 486.723 446.893 486.723L383.763 456.022C381.999 455.039 380.531 453.71 379.477 452.144C378.423 450.577 377.815 448.818 377.7 447.01V382.289L271.438 435.25V499.941C271.561 501.747 272.173 503.503 273.226 505.069C274.279 506.634 275.743 507.964 277.501 508.953L331.224 535.628C343.731 541.922 364.078 541.922 376.62 535.673Z" fill="black"/>
</g>
<path opacity="0.3" d="M296.924 511.402V518.671L277.448 508.983C275.691 507.996 274.228 506.665 273.178 505.1C272.128 503.534 271.52 501.777 271.403 499.971V435.25L291.645 425.172C292.063 429.603 292.516 434.184 292.952 438.69L278.72 445.749V496.292C278.833 498.1 279.441 499.859 280.494 501.426C281.548 502.992 283.017 504.321 284.782 505.304L296.924 511.402Z" fill="black"/>
<path d="M278.72 496.305C278.839 498.112 279.451 499.869 280.504 501.435C281.557 503 283.022 504.33 284.782 505.317L331.154 528.358C343.696 534.591 364.043 534.606 376.603 528.358L437.573 498.017C450.133 491.769 450.133 481.645 437.573 475.397L391.166 452.356C389.41 451.367 387.949 450.036 386.899 448.471C385.849 446.906 385.24 445.15 385.121 443.344V392.787L278.859 445.748L278.72 496.305Z" fill="#472A89"/>
<path opacity="0.3" d="M278.72 496.305C278.839 498.112 279.451 499.869 280.504 501.435C281.557 503 283.022 504.33 284.782 505.317L331.154 528.358C343.696 534.591 364.043 534.606 376.603 528.358L437.573 498.017C450.133 491.769 450.133 481.645 437.573 475.397L391.166 452.356C389.41 451.367 387.949 450.036 386.899 448.471C385.849 446.906 385.24 445.15 385.121 443.344V392.787L278.859 445.748L278.72 496.305Z" fill="black"/>
<path opacity="0.5" d="M403.448 458.53L391.097 452.386C389.341 451.397 387.88 450.066 386.83 448.501C385.78 446.936 385.171 445.18 385.052 443.374V392.787L278.79 445.748V496.305C278.91 498.112 279.521 499.869 280.574 501.435C281.627 503 283.093 504.33 284.852 505.317L297.046 511.325L403.448 458.53Z" fill="black"/>
<path d="M446.91 486.738V494.038C446.91 498.138 443.757 502.209 437.504 505.348L376.534 535.673C369.861 538.744 362.409 540.339 354.846 540.315V533.045C362.409 533.069 369.861 531.475 376.534 528.404L437.504 498.048C443.757 494.939 446.91 490.839 446.91 486.738Z" fill="#472A89"/>
<path opacity="0.5" d="M446.91 486.738V494.038C446.91 498.138 443.757 502.209 437.504 505.348L376.534 535.673C369.861 538.744 362.409 540.339 354.846 540.315V533.045C362.409 533.069 369.861 531.475 376.534 528.404L437.504 498.048C443.757 494.939 446.91 490.839 446.91 486.738Z" fill="black"/>
<path d="M108.004 559.134C110.301 560.091 112.827 560.569 115.378 560.53C117.929 560.491 120.433 559.936 122.689 558.909L533.801 354.262C536.006 353.022 537.84 351.352 539.157 349.387C540.473 347.422 541.235 345.217 541.379 342.952V56.1898C541.3 53.9854 540.619 51.8283 539.389 49.8941C538.16 47.96 536.419 46.3036 534.306 45.06C532.012 44.1022 529.488 43.6248 526.939 43.6666C524.391 43.7083 521.889 44.2681 519.639 45.3003L108.527 250.008C106.33 251.255 104.506 252.933 103.205 254.904C101.903 256.874 101.16 259.083 101.036 261.348V548.065C101.114 550.251 101.785 552.391 102.995 554.313C104.205 556.236 105.92 557.887 108.004 559.134Z" fill="#472A89"/>
<path d="M122.742 558.893L533.854 354.246C536.061 353.009 537.898 351.34 539.215 349.374C540.532 347.409 541.291 345.203 541.431 342.936V56.1891C541.431 52.0285 538.035 50.3313 533.854 52.419L122.742 257.067C120.536 258.305 118.701 259.975 117.384 261.94C116.068 263.905 115.307 266.11 115.164 268.377V555.123C115.164 559.284 118.561 560.981 122.742 558.893Z" fill="#472A89"/>
<path opacity="0.5" d="M122.742 558.893L533.854 354.246C536.061 353.009 537.898 351.34 539.215 349.374C540.532 347.409 541.291 345.203 541.431 342.936V56.1891C541.431 52.0285 538.035 50.3313 533.854 52.419L122.742 257.067C120.536 258.305 118.701 259.975 117.384 261.94C116.068 263.905 115.307 266.11 115.164 268.377V555.123C115.164 559.284 118.561 560.981 122.742 558.893Z" fill="black"/>
<path d="M121.627 566.343C119.471 567.155 117.137 567.553 114.785 567.512C112.433 567.47 110.12 566.99 108.004 566.103C105.916 564.852 104.197 563.197 102.987 561.269C101.777 559.341 101.108 557.195 101.036 555.003V528.898L115.233 535.988V562.093C115.146 565.893 117.951 567.62 121.627 566.343Z" fill="#472A89"/>
<path opacity="0.5" d="M121.627 566.343C119.471 567.155 117.137 567.553 114.785 567.512C112.433 567.47 110.12 566.99 108.004 566.103C105.916 564.852 104.197 563.197 102.987 561.269C101.777 559.341 101.108 557.195 101.036 555.003V528.898L115.233 535.988V562.093C115.146 565.893 117.951 567.62 121.627 566.343Z" fill="black"/>
<path d="M115.146 535.988V562.093C115.146 566.253 118.63 567.935 122.724 565.863L533.836 361.215C536.031 359.981 537.861 358.321 539.177 356.367C540.493 354.413 541.259 352.221 541.414 349.965V323.74L115.146 535.988Z" fill="#472A89"/>
<path opacity="0.3" d="M115.164 535.928V562.093C115.164 566.253 118.648 567.935 122.742 565.863L533.854 361.215C536.046 359.98 537.872 358.318 539.184 356.365C540.497 354.411 541.261 352.219 541.414 349.965V323.74L115.164 535.928Z" fill="black"/>
<path d="M129.361 503.169V272.447C129.442 271.088 129.895 269.764 130.682 268.585C131.469 267.405 132.569 266.402 133.891 265.658L522.6 72.0954C525.109 70.8487 527.147 71.8551 527.147 74.3484V305.191C527.063 306.551 526.607 307.875 525.817 309.055C525.027 310.235 523.925 311.237 522.6 311.98L133.908 505.497C131.399 506.744 129.361 505.723 129.361 503.169Z" fill="#472A89"/>
<path d="M129.361 503.169V272.447C129.442 271.088 129.895 269.764 130.682 268.585C131.469 267.405 132.569 266.402 133.891 265.658L522.6 72.0954C525.109 70.8487 527.147 71.8551 527.147 74.3484V305.191C527.063 306.551 526.607 307.875 525.817 309.055C525.027 310.235 523.925 311.237 522.6 311.98L133.908 505.497C131.399 506.744 129.361 505.723 129.361 503.169Z" fill="#263238"/>
<path d="M328.28 438.179C326.211 439.34 324.489 440.905 323.254 442.748C322.019 444.59 321.306 446.658 321.173 448.783C321.173 452.689 324.361 454.281 328.28 452.328C330.352 451.166 332.075 449.599 333.31 447.753C334.546 445.908 335.257 443.837 335.388 441.709C335.388 437.804 332.2 436.227 328.28 438.179Z" fill="#472A89"/>
<path opacity="0.7" d="M117.394 261.918C116.043 263.875 115.272 266.087 115.146 268.362V535.988L101.036 528.899V261.347C101.128 259.066 101.895 256.842 103.266 254.889L117.394 261.918Z" fill="black"/>
<path opacity="0.3" d="M541.344 55.109C540.804 51.7445 537.651 50.603 533.836 52.4204L122.724 257.068C120.495 258.27 118.655 259.939 117.376 261.919L103.161 254.845C104.449 252.865 106.294 251.197 108.526 249.993L519.638 45.361C521.892 44.3286 524.396 43.7689 526.948 43.7271C529.499 43.6854 532.026 44.1628 534.324 45.1207C536.255 46.2552 537.881 47.7341 539.092 49.4573C540.303 51.1805 541.071 53.1078 541.344 55.109Z" fill="black"/>
<path d="M563.52 90.407C562.909 90.1428 562.227 90.027 561.545 90.072C560.864 90.117 560.21 90.3211 559.653 90.6624L171.744 283.88C170.214 284.753 168.943 285.924 168.035 287.299C167.127 288.675 166.608 290.215 166.518 291.795V521.106C166.464 521.88 166.642 522.653 167.036 523.35C167.43 524.047 168.025 524.645 168.766 525.086C169.619 525.491 174.183 527.774 175.542 528.405C176.023 528.616 176.56 528.714 177.098 528.687C177.637 528.661 178.158 528.512 178.608 528.255L566.429 335.038C567.96 334.165 569.231 332.993 570.139 331.618C571.046 330.243 571.566 328.703 571.655 327.122V96.6253C571.733 96.0429 571.621 95.4532 571.332 94.9226C571.043 94.3919 570.588 93.9413 570.018 93.6213C569.147 93.1257 564.496 90.9027 563.52 90.407Z" fill="#472A89"/>
<path d="M178.521 287.123L566.447 93.9806C569.373 92.4786 571.673 93.7102 571.673 96.6241V327.121C571.584 328.702 571.064 330.242 570.156 331.617C569.248 332.992 567.978 334.164 566.447 335.037L178.521 528.254C175.594 529.756 173.295 527.338 173.295 524.424V295.038C173.387 293.458 173.908 291.919 174.815 290.544C175.723 289.169 176.992 287.998 178.521 287.123Z" fill="#FAFAFA"/>
<path d="M568.816 94.8516C569.844 94.8516 570.001 95.9631 570.001 96.624V327.121C569.907 328.444 569.456 329.731 568.685 330.878C567.914 332.025 566.844 333.002 565.558 333.73L177.685 526.947C177.424 527.093 177.124 527.175 176.814 527.187C175.838 527.187 175.072 525.896 175.072 524.424V295.038C175.156 293.715 175.592 292.427 176.348 291.273C177.103 290.119 178.157 289.13 179.427 288.384L567.318 95.2722C567.767 95.0225 568.283 94.8776 568.816 94.8516ZM568.816 93.3496C567.976 93.3804 567.16 93.5977 566.447 93.9804L178.521 287.123C176.992 287.997 175.723 289.169 174.815 290.544C173.908 291.919 173.387 293.458 173.295 295.038V524.424C173.295 526.737 174.793 528.689 176.779 528.689C177.394 528.679 177.995 528.529 178.521 528.254L566.429 335.036C567.96 334.163 569.231 332.992 570.139 331.617C571.047 330.242 571.566 328.701 571.655 327.121V96.624C571.655 94.5512 570.471 93.3496 568.729 93.3496H568.816Z" fill="#E0E0E0"/>
<path d="M168.661 525.086C169.236 525.341 173.364 527.369 175.176 528.27C174.525 527.805 174.01 527.215 173.671 526.547C173.333 525.879 173.18 525.153 173.225 524.425V310.014L166.431 306.59V521.105C166.375 521.878 166.551 522.65 166.941 523.348C167.332 524.045 167.924 524.643 168.661 525.086Z" fill="#F0F0F0"/>
<path d="M571.743 96.5787C571.743 93.6949 569.356 92.5233 566.517 93.9803L178.521 287.122C176.992 287.997 175.723 289.169 174.815 290.544C173.908 291.919 173.387 293.458 173.295 295.038V310.058L571.743 111.599V96.5787Z" fill="#472A89"/>
<g opacity="0.4">
<path d="M566.446 93.9809L178.52 287.108C176.963 287.955 175.681 289.128 174.792 290.518L168.051 287.138C168.938 285.797 170.209 284.674 171.744 283.879L559.652 90.6615C560.208 90.3178 560.861 90.111 561.542 90.0633C562.224 90.0157 562.907 90.129 563.52 90.3911C564.46 90.9018 568.868 93.0496 570 93.5753C569.414 93.388 568.784 93.3271 568.165 93.3978C567.545 93.4685 566.955 93.6686 566.446 93.9809Z" fill="white"/>
</g>
<path opacity="0.15" d="M166.432 306.605V291.72C166.503 290.098 167.061 288.519 168.052 287.139L174.811 290.503C173.835 291.86 173.288 293.414 173.225 295.009V310.029L166.432 306.605Z" fill="black"/>
<path d="M489.938 269.49L257.607 385.144C256.478 385.776 255.537 386.629 254.862 387.634C254.187 388.639 253.796 389.767 253.723 390.926V448.363C253.796 449.523 254.187 450.651 254.862 451.656C255.537 452.66 256.478 453.514 257.607 454.146L264.384 457.51C265.588 458.035 266.919 458.309 268.268 458.309C269.618 458.309 270.949 458.035 272.153 457.51L504.449 341.856C505.579 341.221 506.52 340.365 507.195 339.358C507.869 338.35 508.26 337.22 508.333 336.058V278.607C508.26 277.447 507.869 276.319 507.194 275.314C506.519 274.31 505.579 273.456 504.449 272.824L497.655 269.46C496.456 268.943 495.133 268.676 493.792 268.682C492.452 268.687 491.131 268.964 489.938 269.49Z" fill="#472A89"/>
<path opacity="0.5" d="M508.333 278.095C508.054 276.368 506.434 275.737 504.483 276.713L272.153 392.367C271.007 392.981 270.065 393.84 269.418 394.861L254.872 387.621C255.524 386.617 256.459 385.769 257.59 385.158L489.938 269.504C491.138 268.977 492.466 268.703 493.814 268.703C495.161 268.703 496.489 268.977 497.689 269.504L504.483 272.868C505.519 273.453 506.398 274.222 507.062 275.124C507.726 276.025 508.159 277.038 508.333 278.095Z" fill="white"/>
<path d="M271.491 457.795C270.353 458.181 269.134 458.357 267.913 458.31C266.691 458.264 265.495 457.996 264.401 457.524L257.607 454.16C256.479 453.526 255.54 452.672 254.865 451.668C254.191 450.663 253.799 449.536 253.723 448.377V390.941C253.775 389.768 254.171 388.626 254.872 387.621L269.418 394.861C268.711 395.853 268.315 396.986 268.268 398.15V455.602C268.268 457.509 269.662 458.395 271.491 457.795Z" fill="#263238"/>
<path d="M272.154 392.368L504.484 276.714C506.627 275.648 508.369 276.504 508.369 278.637V336.088C508.295 337.25 507.905 338.38 507.23 339.387C506.555 340.395 505.614 341.251 504.484 341.886L272.188 457.54C270.046 458.607 268.304 457.735 268.304 455.603V398.166C268.374 397.007 268.758 395.879 269.427 394.872C270.096 393.865 271.03 393.007 272.154 392.368Z" fill="#472A89"/>
<path d="M428.341 300.16L257.625 385.158C256.494 385.77 255.559 386.617 254.907 387.622L269.453 394.861C270.1 393.841 271.042 392.982 272.188 392.368L442.904 307.385L428.341 300.16Z" fill="#455A64"/>
<path d="M442.869 307.385L272.153 392.368C271.023 393.003 270.082 393.859 269.407 394.867C268.733 395.874 268.342 397.004 268.269 398.166V455.587C268.269 457.72 270.011 458.591 272.153 457.525L442.869 372.542V307.385Z" fill="#37474F"/>
<path d="M311.522 385.368L399.615 341.525C403.256 339.707 406.217 340.999 406.217 344.408C406.054 346.323 405.37 348.178 404.22 349.822C403.07 351.466 401.486 352.854 399.597 353.871L311.522 397.729C307.881 399.547 304.902 398.255 304.902 394.846C305.067 392.929 305.751 391.073 306.901 389.426C308.051 387.78 309.634 386.39 311.522 385.368Z" fill="#472A89"/>
<path d="M329.57 399.893C329.586 399.877 329.606 399.864 329.629 399.855C329.651 399.846 329.676 399.842 329.701 399.842C329.725 399.842 329.75 399.846 329.772 399.855C329.795 399.864 329.815 399.877 329.831 399.893C329.909 399.995 329.946 400.116 329.936 400.238V408.784C329.937 409.61 329.855 410.434 329.692 411.248C329.548 411.991 329.302 412.717 328.96 413.411C328.648 414.046 328.238 414.642 327.741 415.183C327.251 415.685 326.661 416.107 325.999 416.43C325.48 416.721 324.876 416.877 324.257 416.88C324.02 416.864 323.79 416.806 323.581 416.711C323.371 416.615 323.186 416.484 323.037 416.325C322.655 415.883 322.404 415.367 322.306 414.823C322.139 414.096 322.063 413.355 322.079 412.615V404.053C322.079 403.903 322.114 403.755 322.184 403.618C322.226 403.494 322.319 403.387 322.445 403.317L323.543 402.761C323.578 402.733 323.625 402.717 323.673 402.717C323.722 402.717 323.768 402.733 323.804 402.761C323.884 402.863 323.921 402.985 323.908 403.107V411.548C323.895 412.013 323.948 412.477 324.065 412.93C324.113 413.22 324.259 413.491 324.483 413.711C324.562 413.792 324.661 413.855 324.773 413.897C324.884 413.939 325.006 413.957 325.128 413.951C325.426 413.934 325.714 413.852 325.964 413.711C326.274 413.551 326.555 413.354 326.8 413.125C327.072 412.855 327.295 412.551 327.462 412.224C327.659 411.839 327.805 411.436 327.898 411.022C327.999 410.527 328.046 410.024 328.037 409.52V401.064C328.042 400.913 328.084 400.765 328.159 400.629C328.202 400.505 328.294 400.398 328.42 400.328L329.57 399.893Z" fill="#FAFAFA"/>
<path d="M336.398 407.975C336.407 407.865 336.376 407.754 336.311 407.659C336.269 407.62 336.218 407.59 336.16 407.572C336.102 407.554 336.04 407.548 335.98 407.554C335.766 407.529 335.549 407.529 335.335 407.554L334.325 407.72C333.999 407.79 333.658 407.79 333.332 407.72C333.076 407.649 332.855 407.506 332.705 407.314C332.534 407.07 332.422 406.8 332.374 406.518C332.204 405.713 332.204 404.889 332.374 404.085C332.504 403.623 332.691 403.175 332.931 402.748C333.17 402.321 333.462 401.918 333.802 401.546C334.132 401.192 334.533 400.892 334.987 400.66C335.353 400.468 335.763 400.345 336.189 400.3C336.498 400.272 336.809 400.33 337.077 400.465C337.333 400.599 337.533 400.799 337.652 401.036C337.792 401.316 337.869 401.617 337.878 401.922C337.896 402.073 337.86 402.225 337.774 402.357C337.731 402.481 337.638 402.588 337.513 402.658L336.467 403.184C336.42 403.207 336.366 403.22 336.311 403.22C336.256 403.22 336.201 403.207 336.154 403.184L335.927 403.033C335.837 402.972 335.728 402.936 335.614 402.928C335.39 402.95 335.175 403.017 334.987 403.123C334.713 403.266 334.471 403.449 334.272 403.664C334.062 403.901 333.951 404.192 333.959 404.49C333.934 404.604 333.934 404.722 333.959 404.836C333.992 404.878 334.036 404.914 334.087 404.94C334.139 404.966 334.196 404.981 334.255 404.986C334.445 405.013 334.64 405.013 334.83 404.986L335.805 404.836C336.624 404.701 337.182 404.836 337.547 405.226C337.932 405.783 338.108 406.428 338.053 407.074C338.048 407.52 337.978 407.964 337.844 408.395C337.706 408.864 337.507 409.317 337.251 409.747C336.995 410.192 336.673 410.606 336.293 410.979C335.932 411.344 335.502 411.654 335.022 411.895C334.639 412.106 334.202 412.235 333.75 412.271C333.422 412.281 333.099 412.202 332.827 412.045C332.558 411.887 332.351 411.662 332.234 411.399C332.094 411.115 332.022 410.808 332.025 410.498C332.009 410.343 332.045 410.186 332.13 410.048C332.172 409.924 332.265 409.817 332.391 409.747L333.436 409.222C333.576 409.222 333.68 409.146 333.75 409.222L333.976 409.432C334.023 409.477 334.079 409.513 334.142 409.539C334.204 409.565 334.273 409.579 334.342 409.582C334.587 409.583 334.826 409.515 335.022 409.387C335.336 409.233 335.619 409.035 335.858 408.801C335.976 408.677 336.076 408.541 336.154 408.395C336.277 408.276 336.361 408.131 336.398 407.975Z" fill="#FAFAFA"/>
<path d="M339.952 403.904C339.949 403.124 340.024 402.345 340.178 401.576C340.324 400.853 340.551 400.143 340.858 399.458C341.114 398.844 341.465 398.263 341.903 397.731C342.268 397.273 342.743 396.889 343.296 396.604C343.7 396.37 344.193 396.279 344.673 396.349C345.098 396.434 345.471 396.654 345.718 396.965C346.046 397.372 346.276 397.832 346.397 398.317C346.564 398.947 346.646 399.593 346.641 400.239V401.171C346.647 401.327 346.604 401.483 346.519 401.621C346.476 401.745 346.384 401.852 346.258 401.922L341.729 404.19C341.718 404.454 341.759 404.718 341.851 404.971C341.918 405.141 342.038 405.291 342.199 405.406C342.342 405.504 342.522 405.552 342.704 405.541C342.915 405.52 343.117 405.458 343.296 405.361C343.56 405.238 343.796 405.075 343.993 404.881C344.171 404.707 344.324 404.516 344.446 404.31C344.521 404.191 344.602 404.076 344.69 403.964C344.765 403.888 344.853 403.822 344.951 403.769L346.031 403.228C346.068 403.203 346.114 403.189 346.162 403.189C346.209 403.189 346.256 403.203 346.293 403.228C346.338 403.276 346.371 403.331 346.389 403.391C346.408 403.451 346.41 403.513 346.397 403.574C346.378 403.867 346.308 404.155 346.188 404.43C346.038 404.847 345.839 405.249 345.596 405.632C345.323 406.071 344.996 406.484 344.62 406.863C344.245 407.25 343.798 407.58 343.296 407.839C342.885 408.072 342.392 408.173 341.903 408.125C341.474 408.036 341.101 407.811 340.858 407.494C340.515 407.039 340.283 406.527 340.178 405.992C340.02 405.305 339.944 404.605 339.952 403.904ZM343.296 399.113C343.029 399.237 342.796 399.412 342.617 399.624C342.424 399.834 342.265 400.066 342.147 400.314C342.025 400.563 341.926 400.819 341.851 401.08C341.789 401.318 341.748 401.559 341.729 401.801L344.794 400.299C344.777 400.092 344.742 399.886 344.69 399.684C344.663 399.502 344.579 399.331 344.446 399.188C344.394 399.123 344.327 399.068 344.249 399.027C344.171 398.985 344.084 398.958 343.993 398.948C343.746 398.929 343.498 398.988 343.296 399.113Z" fill="#FAFAFA"/>
<path d="M352.111 394.922C351.583 395.182 351.168 395.582 350.927 396.063C350.656 396.697 350.531 397.371 350.561 398.046V403.468C350.563 403.623 350.528 403.777 350.456 403.919C350.414 404.043 350.321 404.149 350.195 404.219L349.167 404.73C349.151 404.746 349.131 404.759 349.108 404.767C349.086 404.776 349.061 404.781 349.037 404.781C349.012 404.781 348.987 404.776 348.965 404.767C348.942 404.759 348.922 404.746 348.906 404.73C348.828 404.628 348.791 404.506 348.801 404.384V394.666C348.802 394.512 348.838 394.359 348.906 394.216C348.955 394.095 349.046 393.99 349.167 393.915L350.195 393.405C350.231 393.376 350.277 393.36 350.326 393.36C350.374 393.36 350.421 393.376 350.456 393.405C350.537 393.5 350.574 393.618 350.561 393.735V394.216C350.769 393.813 351.025 393.43 351.327 393.074C351.603 392.745 351.96 392.473 352.373 392.278L353 391.963C353.032 391.935 353.076 391.92 353.122 391.92C353.167 391.92 353.211 391.935 353.244 391.963C353.328 392.063 353.371 392.185 353.366 392.308V393.675C353.363 393.831 353.321 393.985 353.244 394.126C353.2 394.245 353.114 394.35 353 394.426L352.111 394.922Z" fill="#FAFAFA"/>
<path d="M365.106 394.201C365.123 394.185 365.143 394.172 365.165 394.163C365.188 394.154 365.212 394.15 365.237 394.15C365.262 394.15 365.286 394.154 365.309 394.163C365.331 394.172 365.351 394.185 365.368 394.201C365.446 394.303 365.482 394.424 365.472 394.546V396.048C365.471 396.203 365.436 396.356 365.368 396.499C365.308 396.61 365.218 396.708 365.106 396.784L359.149 399.788C359.113 399.817 359.067 399.832 359.018 399.832C358.97 399.832 358.923 399.817 358.887 399.788C358.81 399.692 358.773 399.575 358.783 399.458V385.94C358.784 385.785 358.819 385.632 358.887 385.489C358.936 385.372 359.028 385.272 359.149 385.204L360.246 384.648C360.282 384.619 360.328 384.604 360.377 384.604C360.425 384.604 360.472 384.619 360.508 384.648C360.585 384.744 360.622 384.861 360.612 384.978V396.409L365.106 394.201Z" fill="#FAFAFA"/>
<path d="M370.454 383.086C370.847 382.852 371.32 382.74 371.796 382.77C372.204 382.798 372.584 382.959 372.858 383.221C373.183 383.543 373.421 383.922 373.555 384.332C373.741 384.864 373.847 385.415 373.869 385.97C373.869 386.09 373.869 386.255 373.869 386.45V387.607C373.869 387.787 373.869 387.952 373.869 388.087C373.834 388.74 373.729 389.389 373.555 390.025C373.394 390.645 373.161 391.248 372.858 391.827C372.582 392.366 372.225 392.871 371.796 393.329C371.428 393.745 370.973 394.096 370.454 394.366C370.051 394.592 369.576 394.702 369.096 394.681C368.693 394.651 368.32 394.49 368.05 394.231C367.716 393.921 367.477 393.544 367.354 393.134C367.168 392.602 367.062 392.052 367.04 391.497C367.04 391.377 367.04 391.227 367.04 391.031V389.875C367.04 389.68 367.04 389.514 367.04 389.394C367.06 388.736 367.16 388.082 367.336 387.442C367.506 386.817 367.745 386.209 368.05 385.624C368.327 385.089 368.678 384.585 369.096 384.122C369.465 383.703 369.927 383.351 370.454 383.086ZM372.092 386.961C372.091 386.629 372.026 386.299 371.9 385.985C371.835 385.793 371.701 385.625 371.517 385.504C371.369 385.418 371.189 385.381 371.012 385.399C370.813 385.431 370.623 385.498 370.454 385.594C370.25 385.691 370.062 385.812 369.897 385.955C369.697 386.134 369.527 386.336 369.392 386.555C369.217 386.829 369.088 387.122 369.009 387.427C368.894 387.81 368.824 388.203 368.799 388.598C368.799 388.718 368.799 388.854 368.799 389.019V390.085C368.799 390.25 368.799 390.386 368.799 390.476C368.816 390.808 368.886 391.137 369.009 391.452C369.072 391.644 369.207 391.813 369.392 391.933C369.464 391.977 369.546 392.008 369.633 392.023C369.72 392.039 369.81 392.039 369.897 392.023C370.094 391.994 370.284 391.933 370.454 391.842C370.656 391.742 370.843 391.621 371.012 391.482C371.206 391.299 371.376 391.097 371.517 390.881C371.685 390.605 371.813 390.313 371.9 390.01C372.014 389.627 372.078 389.234 372.092 388.838C372.102 388.698 372.102 388.558 372.092 388.418V387.367C372.102 387.231 372.102 387.096 372.092 386.961Z" fill="#FAFAFA"/>
<path d="M379.199 391.872C379.422 391.755 379.621 391.608 379.791 391.436C380.001 391.224 380.182 390.993 380.331 390.745C380.504 390.443 380.638 390.126 380.732 389.799C380.839 389.431 380.891 389.052 380.888 388.673V387.907C380.888 388.057 380.714 388.237 380.592 388.447C380.473 388.667 380.333 388.878 380.174 389.078C379.992 389.289 379.794 389.49 379.582 389.679C379.363 389.877 379.111 390.044 378.833 390.175C378.654 390.28 378.452 390.353 378.239 390.389C378.027 390.425 377.808 390.424 377.596 390.385C377.209 390.28 376.876 390.063 376.655 389.769C376.371 389.381 376.165 388.955 376.046 388.507C375.897 387.94 375.815 387.362 375.802 386.78C375.802 386.585 375.802 386.345 375.802 386.059C375.802 385.774 375.802 385.533 375.802 385.323C375.824 384.663 375.905 384.005 376.046 383.356C376.189 382.716 376.393 382.088 376.655 381.478C376.902 380.948 377.217 380.444 377.596 379.976C377.917 379.562 378.339 379.214 378.833 378.955C379.065 378.835 379.318 378.748 379.582 378.699C379.778 378.668 379.978 378.668 380.174 378.699C380.329 378.737 380.471 378.804 380.592 378.895C380.704 378.968 380.803 379.054 380.888 379.15V378.669C380.889 378.515 380.925 378.362 380.993 378.219C381.042 378.102 381.133 378.001 381.254 377.933L382.282 377.408C382.317 377.379 382.364 377.363 382.413 377.363C382.461 377.363 382.508 377.379 382.543 377.408C382.627 377.508 382.67 377.629 382.665 377.753V387.516C382.712 388.978 382.397 390.433 381.742 391.782C381.228 392.843 380.338 393.737 379.199 394.335C378.81 394.543 378.366 394.662 377.91 394.681C377.548 394.699 377.189 394.621 376.882 394.455C376.587 394.265 376.349 394.018 376.185 393.734C376.015 393.392 375.921 393.025 375.906 392.653C375.89 392.497 375.926 392.341 376.011 392.202C376.054 392.079 376.146 391.972 376.272 391.902L377.195 391.451C377.217 391.432 377.242 391.416 377.271 391.406C377.299 391.395 377.33 391.389 377.361 391.389C377.392 391.389 377.423 391.395 377.451 391.406C377.48 391.416 377.505 391.432 377.526 391.451C377.612 391.529 377.688 391.615 377.753 391.707C377.859 391.868 378.034 391.986 378.241 392.037C378.45 392.172 378.763 392.022 379.199 391.872ZM377.561 384.587C377.561 384.988 377.561 385.378 377.561 385.759C377.511 386.359 377.709 386.954 378.119 387.441C378.274 387.556 378.471 387.62 378.676 387.62C378.881 387.62 379.079 387.556 379.233 387.441C379.739 387.158 380.134 386.749 380.366 386.269C380.683 385.643 380.86 384.97 380.888 384.287C380.888 384.062 380.888 383.791 380.888 383.476C380.888 383.16 380.888 382.89 380.888 382.695C380.924 382.157 380.739 381.625 380.366 381.193C380.211 381.07 380.009 381.002 379.8 381.002C379.59 381.002 379.388 381.07 379.233 381.193C378.738 381.475 378.35 381.877 378.119 382.349C377.761 383.055 377.571 383.817 377.561 384.587Z" fill="#FAFAFA"/>
<path d="M386.725 371.251C386.759 371.226 386.802 371.213 386.847 371.213C386.891 371.213 386.934 371.226 386.969 371.251C387.06 371.348 387.104 371.472 387.091 371.596V373.233C387.092 373.39 387.05 373.544 386.969 373.684C386.92 373.797 386.835 373.896 386.725 373.969L385.558 374.555C385.541 374.571 385.521 374.584 385.499 374.593C385.476 374.601 385.452 374.606 385.427 374.606C385.402 374.606 385.378 374.601 385.355 374.593C385.333 374.584 385.313 374.571 385.296 374.555C385.251 374.51 385.217 374.458 385.196 374.401C385.175 374.344 385.167 374.284 385.174 374.225V372.587C385.173 372.431 385.215 372.277 385.296 372.137C385.345 372.02 385.437 371.919 385.558 371.851L386.725 371.251ZM387.021 385.354C387.022 385.504 386.986 385.653 386.916 385.79C386.861 385.908 386.771 386.011 386.655 386.09L385.61 386.601C385.595 386.617 385.577 386.629 385.556 386.638C385.534 386.647 385.511 386.651 385.488 386.651C385.465 386.651 385.442 386.647 385.42 386.638C385.399 386.629 385.381 386.617 385.366 386.601C385.275 386.504 385.231 386.38 385.244 386.256V376.538C385.243 376.381 385.285 376.227 385.366 376.087C385.415 375.97 385.499 375.867 385.61 375.787L386.655 375.276C386.691 375.248 386.737 375.232 386.786 375.232C386.834 375.232 386.881 375.248 386.916 375.276C386.994 375.373 387.031 375.489 387.021 375.606V385.354Z" fill="#FAFAFA"/>
<path d="M396.184 380.773C396.183 380.928 396.147 381.081 396.079 381.224C396.03 381.341 395.939 381.441 395.818 381.509L394.773 382.035C394.74 382.062 394.696 382.078 394.651 382.078C394.605 382.078 394.561 382.062 394.529 382.035C394.438 381.938 394.394 381.814 394.407 381.689V376.402C394.46 375.778 394.328 375.153 394.024 374.585C393.78 374.21 393.396 374.149 392.856 374.42C392.318 374.732 391.918 375.193 391.724 375.727C391.433 376.435 391.292 377.183 391.306 377.934V383.237C391.305 383.391 391.27 383.544 391.202 383.687C391.159 383.811 391.066 383.918 390.94 383.988L389.912 384.498C389.896 384.514 389.876 384.527 389.853 384.536C389.831 384.545 389.807 384.549 389.782 384.549C389.757 384.549 389.733 384.545 389.71 384.536C389.688 384.527 389.667 384.514 389.651 384.498C389.57 384.403 389.533 384.285 389.547 384.168V374.45C389.544 374.295 389.58 374.141 389.651 373.999C389.694 373.875 389.787 373.769 389.912 373.699L390.94 373.188C390.957 373.172 390.977 373.159 390.999 373.151C391.022 373.142 391.046 373.137 391.071 373.137C391.096 373.137 391.12 373.142 391.143 373.151C391.165 373.159 391.185 373.172 391.202 373.188C391.28 373.29 391.316 373.412 391.306 373.534V373.999C391.535 373.541 391.815 373.104 392.142 372.692C392.429 372.313 392.817 371.999 393.275 371.776C393.671 371.526 394.164 371.419 394.651 371.476C394.843 371.518 395.024 371.594 395.18 371.7C395.336 371.806 395.464 371.94 395.557 372.092C395.809 372.498 395.975 372.941 396.044 373.398C396.137 373.996 396.184 374.598 396.184 375.201V380.773Z" fill="#FAFAFA"/>
<path d="M484.05 337.049L467.135 345.46L469.766 325.003C467.728 324.071 466.438 321.803 466.438 318.544C466.438 312.731 470.55 305.987 475.601 303.524C480.653 301.061 484.747 303.674 484.747 309.532C484.642 312.979 483.502 316.343 481.437 319.295L484.05 337.049Z" fill="#455A64"/>
<path d="M484.067 337.049L469.173 329.645L467.135 345.476L484.067 337.049Z" fill="#37474F"/>
<path d="M475.567 303.479C471.883 305.625 469.136 308.771 467.763 312.416L481.403 319.205C483.467 316.253 484.608 312.889 484.712 309.442C484.747 303.63 480.654 300.971 475.567 303.479Z" fill="#37474F"/>
<path d="M393.344 235.364C387.543 232.48 379.547 232.886 370.698 237.287C353.034 246.088 338.715 267.462 338.715 285.05C338.715 293.882 342.338 300.07 348.156 302.924L359.427 308.572C365.211 311.455 373.206 311.035 382.073 306.634C399.737 297.847 414.056 276.459 414.056 258.87C414.056 250.084 410.468 243.85 404.684 241.042" fill="#472A89"/>
<path d="M382.056 242.949C364.392 251.751 350.073 273.14 350.073 290.713C350.073 308.286 364.392 315.436 382.056 306.634C399.72 297.833 414.057 276.459 414.039 258.871C414.022 241.282 399.703 234.163 382.056 242.949Z" fill="#472A89"/>
<path d="M399.702 281.971V283.983C395.47 290.496 389.401 295.983 382.056 299.935C375.175 303.344 368.956 303.72 364.392 301.542V297.396C364.625 293.083 366.053 288.881 368.557 285.142C371.06 281.402 374.566 278.234 378.781 275.903L383.432 273.59C387.543 271.547 391.549 271.276 394.685 272.854C397.821 274.431 399.702 277.75 399.702 281.971Z" fill="#472A89"/>
<path opacity="0.4" d="M393.344 235.363L404.667 241.041C398.884 238.142 390.888 238.548 382.021 242.948C370.454 248.716 360.316 259.876 354.707 271.832L343.366 266.169C348.993 254.153 359.044 243.054 370.681 237.286C379.565 232.9 387.561 232.48 393.344 235.363Z" fill="white"/>
<path opacity="0.2" d="M359.027 308.347L348.174 302.925C342.356 300.071 338.732 293.913 338.732 285.051L350.073 290.728C350.143 299.29 353.487 305.388 359.027 308.347Z" fill="black"/>
<path opacity="0.1" d="M343.401 266.17L354.741 271.832C351.835 277.818 350.275 284.225 350.142 290.713L338.802 285.035C338.941 278.553 340.502 272.152 343.401 266.17Z" fill="black"/>
<path d="M378.015 272.643C376.934 272.653 375.87 272.415 374.931 271.952C373.8 271.302 372.894 270.401 372.308 269.343C371.723 268.285 371.479 267.111 371.604 265.944C371.752 263.208 372.658 260.541 374.246 258.169C375.834 255.796 378.058 253.785 380.732 252.306C381.806 251.567 383.114 251.124 384.485 251.036C385.856 250.948 387.225 251.218 388.415 251.812C389.604 252.406 390.558 253.296 391.151 254.365C391.745 255.434 391.951 256.632 391.742 257.803C391.591 260.539 390.684 263.205 389.096 265.577C387.508 267.949 385.286 269.96 382.613 271.441C381.231 272.186 379.644 272.6 378.015 272.643Z" fill="white"/>
<path d="M394.685 272.84C391.549 271.263 387.543 271.533 383.432 273.576L378.781 275.889C374.564 278.222 371.056 281.392 368.553 285.135C366.049 288.877 364.622 293.082 364.392 297.398V301.558C368.956 303.736 375.175 303.361 382.056 299.951C389.401 295.999 395.47 290.513 399.702 284V281.987C399.702 277.751 397.89 274.432 394.685 272.84Z" fill="white"/>
<path d="M752.805 532.684C752.805 532.684 755.122 515.141 765.243 501.518C775.364 487.895 789.265 479.408 802.243 478.522C815.221 477.636 825.708 487.94 811.824 495.044C797.94 502.149 773.274 509.328 761.916 535.764L752.805 532.684Z" fill="#472A89"/>
<path opacity="0.1" d="M752.805 532.684C752.805 532.684 755.122 515.141 765.243 501.518C775.364 487.895 789.265 479.408 802.243 478.522C815.221 477.636 825.708 487.94 811.824 495.044C797.94 502.149 773.274 509.328 761.916 535.764L752.805 532.684Z" fill="black"/>
<path d="M756.62 528.118H756.481C756.31 528.058 756.174 527.942 756.102 527.796C756.03 527.649 756.028 527.484 756.097 527.337C769.79 498.273 795.85 486.122 807.73 483.779C807.82 483.761 807.912 483.759 808.002 483.772C808.093 483.785 808.179 483.813 808.257 483.855C808.334 483.897 808.402 483.952 808.455 484.016C808.508 484.08 808.546 484.153 808.566 484.23C808.587 484.307 808.59 484.386 808.575 484.464C808.56 484.542 808.527 484.617 808.478 484.683C808.43 484.75 808.366 484.808 808.292 484.854C808.217 484.9 808.133 484.933 808.044 484.951C796.407 487.264 770.852 499.19 757.386 527.803C757.319 527.923 757.207 528.019 757.067 528.076C756.928 528.134 756.77 528.148 756.62 528.118Z" fill="white"/>
<path d="M825.917 528.465C824.75 530.748 821.858 531.949 819.176 532.88C816.493 533.812 813.566 534.818 812.103 536.981C809.176 541.337 813.984 547.495 810.849 551.716C810.111 552.565 809.181 553.277 808.115 553.809C807.049 554.341 805.87 554.681 804.647 554.81C802.644 555.125 800.606 555.125 798.585 555.275C797.617 555.264 796.651 555.199 795.693 555.08C792.878 554.538 789.935 554.808 787.314 555.846C783.29 557.799 782.088 562.169 779.615 565.549C778.103 567.539 776.112 569.224 773.776 570.489C771.44 571.754 768.814 572.569 766.079 572.879C764.337 573.074 760.853 573.359 759.111 572.473C758.975 572.416 758.846 572.345 758.728 572.263C758.467 572.023 758.153 571.707 758.014 571.542C758.005 571.507 758.005 571.471 758.014 571.437C757.3 569.169 758.467 566.826 758.519 564.483V564.062C758.397 561.343 758.31 558.64 758.24 555.936C758.089 550.93 758.031 545.923 758.066 540.916C758.066 537.672 757.648 534.127 759.251 531.078C760.993 527.714 765.383 527.638 767.037 524.349C767.699 523.027 768.048 521.63 768.692 520.294C769.688 518.35 771.284 516.68 773.305 515.464C775.326 514.248 777.695 513.534 780.155 513.4C787.802 513.069 794.648 518.401 802.296 517.906C804.264 517.77 806.198 517.245 808.149 516.944C814.333 515.938 821.492 517.455 824.976 521.976C825.741 522.907 826.227 523.986 826.391 525.119C826.555 526.251 826.392 527.4 825.917 528.465Z" fill="#472A89"/>
<path d="M757.247 561.026C757.082 560.984 756.943 560.889 756.859 560.76C756.774 560.631 756.751 560.479 756.794 560.336C767.351 526.18 809.054 521.284 818.862 521.854C818.948 521.858 819.032 521.877 819.11 521.909C819.188 521.942 819.257 521.987 819.314 522.043C819.371 522.099 819.414 522.165 819.441 522.235C819.468 522.306 819.479 522.381 819.471 522.455C819.454 522.601 819.371 522.736 819.242 522.831C819.112 522.926 818.945 522.974 818.775 522.966C809.211 522.38 768.379 527.201 758.048 560.636C758 560.778 757.889 560.898 757.739 560.971C757.59 561.044 757.413 561.064 757.247 561.026Z" fill="white"/>
<path d="M803.637 543.724C803.505 543.708 803.382 543.655 803.289 543.574C799.433 540.693 794.887 538.581 789.976 537.389C785.065 536.197 779.909 535.955 774.877 536.679C774.707 536.693 774.538 536.651 774.402 536.562C774.266 536.473 774.175 536.343 774.145 536.199C774.12 536.052 774.162 535.902 774.263 535.781C774.364 535.661 774.515 535.579 774.685 535.553C779.933 534.8 785.31 535.057 790.43 536.306C795.55 537.555 800.286 539.765 804.299 542.778C804.361 542.829 804.409 542.891 804.443 542.96C804.476 543.028 804.494 543.101 804.494 543.176C804.494 543.25 804.476 543.323 804.443 543.392C804.409 543.46 804.361 543.522 804.299 543.574C804.22 543.655 804.114 543.713 803.996 543.74C803.877 543.767 803.752 543.761 803.637 543.724Z" fill="white"/>
<path d="M656.943 120.159L662.483 121.992V111.478C662.483 103.127 670.2 101.129 678.579 105.305C686.975 109.48 693.769 119.619 693.769 127.97V129.472C694.937 129.164 696.17 129.088 697.377 129.249C698.583 129.411 699.732 129.805 700.737 130.403C703.919 132.192 706.566 134.603 708.464 137.44C710.362 140.277 711.457 143.46 711.659 146.73V147.421L719.394 151.266C721.486 152.444 723.228 154.029 724.478 155.895C725.728 157.761 726.451 159.854 726.588 162.005C726.588 165.97 723.366 167.578 719.394 165.595L656.943 134.489C654.849 133.314 653.107 131.728 651.86 129.862C650.612 127.995 649.895 125.901 649.766 123.749C649.766 119.799 652.954 118.192 656.943 120.159Z" fill="#E6E6E6"/>
<path d="M731.135 111.839L741.186 116.84C741.131 116.462 741.102 116.08 741.099 115.699V113.19C741.099 108.684 744.722 106.912 749.217 109.15C751.148 110.17 752.8 111.538 754.06 113.16C754.791 107.543 759.913 105.455 766.114 108.534C769.658 110.522 772.609 113.203 774.728 116.358C776.846 119.513 778.073 123.053 778.308 126.693V130.448C778.353 131.949 778.002 133.438 777.28 134.804L785.642 138.95C786.945 139.695 788.027 140.693 788.802 141.864C789.576 143.036 790.022 144.347 790.102 145.694C790.102 148.172 788.081 149.178 785.59 147.947L731.135 120.911C729.818 120.171 728.722 119.173 727.938 117.998C727.154 116.823 726.703 115.505 726.623 114.152C726.623 111.613 728.644 110.607 731.135 111.839Z" fill="#E6E6E6"/>
<path d="M692.219 339.797C684.902 350.462 677.865 359.729 672.918 364.175C663.528 367.93 641.474 373.728 632.852 374.689C631.337 374.855 629.803 374.546 628.531 373.818C625.134 371.895 622.504 371.58 618.933 370.513C616.128 369.687 614.944 368.531 614.421 369.011C613.881 369.557 613.61 370.263 613.665 370.978C613.721 371.694 614.098 372.363 614.717 372.841C616.057 373.939 617.542 374.897 619.142 375.695C615.317 376.513 611.327 376.575 607.471 375.875C599.997 374.178 596.479 377.272 601.53 384.272C603.272 386.765 610.449 390.775 624.873 389.694C630.019 389.455 635.143 388.953 640.22 388.192C654.052 385.639 669.434 383.175 678.893 380.682C682.411 379.489 685.56 377.607 688.09 375.185C703.995 359.549 709.273 348.404 716.241 338.28L715.649 321.758C704.361 321.428 698.333 330.876 692.219 339.797Z" fill="#FFA8A7"/>
<path d="M717.583 321.428C714.309 321.031 710.973 321.413 707.933 322.533C704.894 323.653 702.267 325.467 700.337 327.781C692.602 336.327 678.91 356.845 678.91 356.845C678.91 356.845 683.387 367.133 695.477 368.861L714.9 346.241C714.9 346.241 724.098 330.53 717.583 321.428Z" fill="#455A64"/>
<path d="M759.582 552.045H746.917V571.511H759.582V552.045Z" fill="#FFA8A7"/>
<path d="M715.684 551.008L703.037 551.398L702.392 530.791L715.684 530.4V551.008Z" fill="#FFA8A7"/>
<path d="M761.359 383.535C761.359 394.38 759.513 481.751 759.513 481.751C759.791 484.875 762.997 490.643 762.352 502.644C761.394 518.941 760.122 561.778 760.122 561.778C757.948 562.737 755.55 563.257 753.108 563.299C750.666 563.34 748.246 562.902 746.03 562.018C746.03 562.018 735.752 501.938 733.487 485.852C731.501 471.748 726.415 425.066 726.415 425.066L719.569 480.249C721.02 486.17 721.547 492.232 721.136 498.273C720.544 505.783 716.468 544.655 716.468 544.655C714.28 545.768 711.827 546.437 709.295 546.611C706.762 546.785 704.217 546.461 701.852 545.661C701.852 545.661 694.641 487.083 694.501 480.204C694.327 472.394 698.717 383.445 698.717 383.445L761.359 383.535Z" fill="#37474F"/>
<path d="M746.918 565.893V564.271C745.698 564.736 742.894 574.379 737.86 578.495C733.87 581.769 728.435 585.539 727.042 589.189C725.648 592.839 734.619 595.077 738.365 594.491C742.685 593.8 750.21 591.051 752.092 588.483C753.973 585.915 754.861 582.19 756.394 580.327C757.927 578.465 761.464 576.392 762.282 574.229C762.538 572.205 762.294 570.158 761.568 568.221C760.976 566.208 760.349 564 759.582 564.196V565.427C757.797 566.691 755.551 567.372 753.241 567.35C751.395 567.485 746.9 567.155 746.918 565.893Z" fill="#263238"/>
<path d="M702.897 547.884C702.235 547.884 701.695 548.74 700.25 550.152C698.1 552.102 695.585 553.727 692.811 554.959C688.073 557.091 678.875 560.366 674.677 562.063C672.064 563.114 672.186 565.938 674.886 567.545C677.586 569.152 684.084 570.309 691.888 568.747C696.138 567.891 701.678 564.361 705.197 564.556C708.716 564.752 715.248 564.691 717.844 563.054C720.439 561.417 719.394 558.023 718.662 555.094C717.861 551.879 716.92 546.878 715.684 547.103V548.23C714.168 550.302 706.312 551.143 702.967 549.626L702.897 547.884Z" fill="#263238"/>
<path d="M726.414 425.066C719.826 423.206 713.803 420.102 708.785 415.979C708.785 415.979 712.269 421.701 722.303 427.033L720.143 476.314L726.414 425.066Z" fill="#263238"/>
<path d="M754.287 323.021C754.287 323.021 764.739 325.093 763.989 341.375L761.812 367.285V406.186C752.51 415.288 711.294 414.628 697.097 405.465C697.097 405.465 698.699 359.429 699.657 341.705C700.337 329.119 703.699 322.78 718.053 321.398L735.699 322.059L754.287 323.021Z" fill="#472A89"/>
<path d="M740.978 289.195C741.038 291.375 740.597 293.543 739.68 295.576C738.764 297.608 737.39 299.463 735.638 301.035C733.886 302.608 731.79 303.865 729.472 304.736C727.153 305.606 724.658 306.073 722.129 306.108C711.677 306.108 705.545 298.327 703.281 289.195C699.1 272.478 711.712 272.268 722.129 272.268C727.232 272.358 732.084 274.192 735.618 277.367C739.153 280.541 741.08 284.796 740.978 289.195Z" fill="#263238"/>
<path d="M750.593 296.029C750.593 296.029 747.701 308.226 746.534 310.238C745.8 311.45 744.552 312.37 743.05 312.807L743.259 304.23L750.593 296.029Z" fill="#263238"/>
<path d="M746.952 278.56C746.952 278.56 749.025 278.109 751.238 281.083C753.119 283.621 753.554 289.329 750.593 296.103L745.141 296.674L746.952 278.56Z" fill="#263238"/>
<path d="M748.956 281.039L755.645 281.145C755.691 280.772 755.647 280.395 755.516 280.038C755.385 279.68 755.169 279.35 754.883 279.068C754.596 278.786 754.246 278.558 753.852 278.398C753.459 278.239 753.031 278.151 752.597 278.141C751.682 278.152 750.805 278.454 750.133 278.989C749.461 279.524 749.042 280.254 748.956 281.039Z" fill="#263238"/>
<path d="M749.774 279.673L754.722 275.572C754.437 275.283 754.085 275.047 753.689 274.88C753.293 274.713 752.861 274.619 752.421 274.604C751.98 274.588 751.541 274.652 751.131 274.79C750.72 274.928 750.347 275.138 750.036 275.407C749.38 275.96 748.989 276.706 748.94 277.496C748.892 278.286 749.19 279.063 749.774 279.673Z" fill="#263238"/>
<path d="M743.503 296.599C744.601 297.184 746.151 295.307 747.51 294.03C748.869 292.753 753.084 291.582 755.279 295.727C757.474 299.873 753.729 303.973 750.593 305.325C744.966 307.728 743.19 304.229 743.19 304.229L742.719 323.544C734.811 334.058 716.868 333.728 723.331 323.034V317.161C720.672 317.542 717.973 317.663 715.283 317.521C710.893 316.921 708.141 313.811 706.799 309.546C704.674 302.697 703.855 297.169 705.667 283.696C707.653 268.947 726.78 268.781 737.023 274.684C747.266 280.587 743.503 296.599 743.503 296.599Z" fill="#FFA8A7"/>
<path d="M719.673 281.399C724.237 281.009 728.748 280.198 733.33 279.897C734.318 279.794 735.319 279.835 736.291 280.017C739.775 280.843 739.357 284.358 739.915 286.806C740.873 291.042 741.657 298.207 743.503 298.237C744.061 298.237 746.151 295.128 747.51 294.016C748.257 293.058 748.679 291.94 748.729 290.787C749.078 289.044 749.252 287.257 749.409 285.485C749.548 283.983 749.722 282.481 749.722 280.979C749.802 279.281 749.644 277.582 749.252 275.917C748.815 274.501 747.977 273.2 746.813 272.132L746.465 271.801C744.168 269.732 741.382 268.113 738.295 267.055C733.853 265.62 729.195 264.745 724.463 264.457C719.738 264.168 715.034 263.667 710.37 262.955C710.103 262.888 709.819 262.888 709.552 262.955C709.363 263.045 709.203 263.175 709.087 263.332C708.971 263.49 708.904 263.67 708.89 263.856C708.699 264.789 708.818 265.75 709.234 266.627C709.65 267.505 710.346 268.262 711.241 268.812C708.088 269.023 704.465 267.611 701.434 266.89C701.189 266.8 700.925 266.754 700.659 266.754C700.392 266.754 700.129 266.8 699.884 266.89C699.579 267.073 699.363 267.345 699.274 267.656C699.053 268.362 699.023 269.102 699.187 269.819C699.464 271.993 700.401 274.065 701.904 275.827C704.252 278.462 707.569 280.332 711.311 281.129C714.066 281.587 716.886 281.678 719.673 281.399Z" fill="#263238"/>
<path d="M723.349 317.162C723.349 317.162 733.139 315.39 736.553 313.752C738.587 312.793 740.238 311.328 741.291 309.547C740.777 311.336 739.86 313.02 738.591 314.503C736.1 317.387 723.349 319.49 723.349 319.49V317.162Z" fill="#F28F8F"/>
<path d="M725.7 294.392C725.681 294.856 725.876 295.307 726.241 295.647C726.607 295.988 727.113 296.19 727.651 296.21C728.078 296.24 728.505 296.158 728.877 295.975C729.249 295.793 729.549 295.517 729.736 295.185C729.923 294.853 729.99 294.48 729.928 294.115C729.865 293.75 729.676 293.409 729.385 293.138C729.094 292.868 728.715 292.679 728.298 292.597C727.88 292.515 727.444 292.543 727.045 292.679C726.647 292.814 726.305 293.05 726.065 293.356C725.825 293.662 725.698 294.023 725.7 294.392Z" fill="#263238"/>
<path d="M728.836 287.107L733.034 289.195C733.34 288.68 733.409 288.085 733.228 287.529C733.047 286.972 732.63 286.494 732.059 286.191C731.78 286.056 731.472 285.973 731.155 285.947C730.837 285.92 730.516 285.951 730.213 286.037C729.91 286.123 729.631 286.263 729.394 286.447C729.157 286.632 728.967 286.856 728.836 287.107Z" fill="#263238"/>
<path d="M724.22 306.572L719.743 308.074C719.833 308.339 719.985 308.585 720.19 308.797C720.395 309.009 720.648 309.182 720.934 309.306C721.22 309.43 721.532 309.502 721.852 309.517C722.171 309.533 722.491 309.492 722.791 309.396C723.401 309.17 723.887 308.752 724.153 308.228C724.418 307.703 724.442 307.111 724.22 306.572Z" fill="#F28F8F"/>
<path d="M707.688 288.653L711.52 286.009C711.348 285.779 711.122 285.582 710.856 285.431C710.59 285.281 710.291 285.18 709.977 285.137C709.663 285.093 709.342 285.106 709.035 285.176C708.727 285.247 708.44 285.372 708.193 285.544C707.681 285.918 707.346 286.442 707.253 287.015C707.16 287.589 707.315 288.172 707.688 288.653Z" fill="#263238"/>
<path d="M709.377 293.895C709.408 294.224 709.549 294.537 709.783 294.798C710.017 295.059 710.334 295.255 710.695 295.363C711.056 295.471 711.446 295.486 711.817 295.406C712.188 295.326 712.524 295.155 712.784 294.913C713.044 294.671 713.216 294.369 713.28 294.044C713.344 293.719 713.297 293.385 713.145 293.083C712.992 292.78 712.741 292.523 712.421 292.342C712.102 292.161 711.728 292.064 711.346 292.062C711.077 292.07 710.812 292.124 710.567 292.22C710.322 292.317 710.101 292.454 709.918 292.625C709.735 292.795 709.593 292.995 709.5 293.213C709.408 293.431 709.366 293.663 709.377 293.895Z" fill="#263238"/>
<path d="M719.882 292.484L719.655 303.164L712.618 301.782L719.882 292.484Z" fill="#F28F8F"/>
<path d="M552.754 381.929L563.676 376.492L567.996 371.971L557.091 377.408L552.754 381.929Z" fill="#472A89"/>
<path opacity="0.4" d="M552.754 381.929L563.676 376.492L567.996 371.971L557.091 377.408L552.754 381.929Z" fill="black"/>
<path d="M582.455 396.708L593.377 391.271L602.488 384.316L591.583 389.739L582.455 396.708Z" fill="#472A89"/>
<path opacity="0.4" d="M582.455 396.708L593.377 391.271L602.488 384.316L591.583 389.739L582.455 396.708Z" fill="black"/>
<path d="M675.234 415.468C677.817 418.452 679.38 422.001 679.746 425.711C677.175 422.721 675.613 419.176 675.234 415.468ZM700.615 415.753C696.94 394.199 683.509 372.886 667.517 364.91C659.835 361.08 652.728 360.945 647.031 363.814L636.753 368.921L636.179 369.221C635.721 369.438 635.279 369.679 634.855 369.942C634.01 370.443 633.218 371.006 632.486 371.624L632.137 371.91C631.824 372.18 631.493 372.495 631.196 372.796C630.9 373.096 630.447 373.562 630.099 373.967C629.36 374.807 628.69 375.69 628.096 376.611C627.782 377.076 627.486 377.572 627.207 378.113L537.442 333.443L526.537 338.866V344.874L527.46 345.324L528.331 345.76V346.961L526.589 347.848V351.332L539.776 375.364L552.806 381.868L557.144 377.362L568.641 383.295L575.243 393.043L582.525 396.663L591.636 389.693L602.819 395.266L606.582 408.649L625.378 418.021C626.307 421.427 627.471 424.782 628.862 428.069C628.984 428.4 629.141 428.745 629.298 429.121C635.534 443.24 645.446 455.331 656.63 460.903C657.97 461.588 659.374 462.176 660.828 462.66C661.596 462.924 662.382 463.15 663.18 463.336C663.876 463.497 664.573 463.632 665.27 463.742C667.47 464.088 669.724 464.088 671.924 463.742L672.83 463.547C673.263 463.471 673.689 463.366 674.102 463.231L675.077 462.901C675.423 462.793 675.755 462.658 676.07 462.495C676.392 462.375 676.706 462.24 677.011 462.09L677.464 461.849C677.546 461.826 677.623 461.791 677.69 461.744C680.181 460.513 686.313 457.448 687.986 456.637C696.278 452.492 701.643 442.008 701.643 427.183C701.629 423.356 701.285 419.536 700.615 415.753Z" fill="#472A89"/>
<path d="M672.046 433.656C667.726 431.509 664.242 425.14 664.242 419.433C664.242 413.725 667.726 410.826 672.046 412.959C676.366 415.092 679.833 421.475 679.833 427.198C679.833 432.92 676.349 435.804 672.046 433.656ZM689.693 421.175C686.034 399.636 672.604 378.308 656.595 370.347C649.174 366.652 642.31 366.382 636.736 368.92L636.161 369.221C635.703 369.438 635.261 369.679 634.837 369.942C633.993 370.443 633.2 371.005 632.468 371.624L632.12 371.909C631.806 372.18 631.475 372.495 631.179 372.795C630.883 373.096 630.43 373.561 630.081 373.967C629.342 374.806 628.673 375.69 628.078 376.611C627.765 377.076 627.468 377.572 627.19 378.113C625.566 381.016 624.394 384.091 623.706 387.26L526.52 338.865V344.873L527.443 345.324L528.314 345.759V346.961L526.572 347.847V351.332L539.759 375.364L552.789 381.868L557.126 377.362L568.624 383.294L575.226 393.042L582.507 396.662L591.618 389.693L602.802 395.265L606.564 408.648L625.378 418.021C626.307 421.427 627.47 424.782 628.862 428.069C628.984 428.399 629.141 428.745 629.298 429.12C635.534 443.239 645.446 455.33 656.63 460.903C657.97 461.588 659.374 462.176 660.828 462.66C661.596 462.924 662.381 463.149 663.179 463.336C663.876 463.496 664.573 463.631 665.27 463.742C667.47 464.087 669.724 464.087 671.924 463.742L672.83 463.546C673.263 463.471 673.688 463.366 674.102 463.231L675.077 462.9C675.423 462.793 675.755 462.657 676.07 462.495C676.392 462.375 676.706 462.239 677.011 462.089L677.464 461.849C677.546 461.826 677.623 461.79 677.69 461.744C685.634 457.418 690.738 447.084 690.738 432.62C690.709 428.788 690.359 424.963 689.693 421.175Z" fill="#472A89"/>
<path opacity="0.4" d="M679.833 427.183C679.833 432.905 676.349 435.804 672.046 433.656C667.744 431.508 664.242 425.155 664.242 419.432C664.242 413.71 667.726 410.811 672.046 412.959C673.29 413.612 674.374 414.469 675.234 415.482C675.609 419.191 677.171 422.737 679.746 425.726C679.81 426.209 679.839 426.696 679.833 427.183Z" fill="black"/>
<path opacity="0.4" d="M701.608 427.168C701.608 441.992 696.243 452.476 687.951 456.622C686.209 457.433 680.147 460.497 677.656 461.729C685.599 457.403 690.704 447.069 690.704 432.605C690.685 428.779 690.347 424.959 689.693 421.175C686.035 399.636 672.604 378.308 656.595 370.347C649.174 366.652 642.311 366.382 636.736 368.92L647.014 363.813C652.711 360.944 659.818 361.08 667.5 364.91C683.509 372.885 696.94 394.199 700.598 415.752C701.262 419.531 701.599 423.346 701.608 427.168Z" fill="white"/>
<path d="M690.703 432.576C690.703 447.04 685.599 457.374 677.656 461.7C680.147 460.468 686.279 457.404 687.951 456.593C696.243 452.447 701.608 441.963 701.608 427.139C701.608 426.598 701.608 426.042 701.608 425.486L690.703 430.924C690.686 431.509 690.703 432.05 690.703 432.576Z" fill="#472A89"/>
<path opacity="0.1" d="M690.703 432.576C690.703 447.04 685.599 457.374 677.656 461.7C680.147 460.468 686.279 457.404 687.951 456.593C696.243 452.447 701.608 441.963 701.608 427.139C701.608 426.598 701.608 426.042 701.608 425.486L690.703 430.924C690.686 431.509 690.703 432.05 690.703 432.576Z" fill="black"/>
<path opacity="0.15" d="M624.124 393.403V396.452L526.537 347.878L528.331 346.977V345.715L624.124 393.403Z" fill="black"/>
<path opacity="0.15" d="M624.124 394.664V396.452L526.537 347.877L528.331 346.976V346.961L624.124 394.664Z" fill="black"/>
<path opacity="0.15" d="M666.559 456.607C662.861 456.524 659.254 455.596 656.107 453.918C640.203 446.003 627.26 422.451 627.26 401.423C627.26 389.152 631.563 379.99 639.071 376.25C644.297 373.636 650.481 373.967 656.978 377.196C672.865 385.112 685.808 408.738 685.808 429.766C685.808 442.023 681.506 451.2 673.998 454.925C671.733 456.04 669.167 456.62 666.559 456.607ZM646.613 376.025C644.292 376.013 642.008 376.532 639.994 377.527C633.148 380.936 629.054 389.873 629.054 401.408C629.054 421.956 641.596 444.966 657.031 452.597C662.936 455.601 668.528 455.871 673.179 453.558C680.025 450.148 684.119 441.226 684.119 429.691C684.119 409.129 671.576 386.133 656.16 378.488C653.278 376.976 649.985 376.147 646.613 376.085V376.025Z" fill="black"/>
<path opacity="0.4" d="M627.12 378.084C625.496 380.987 624.325 384.063 623.636 387.231L526.45 338.836L537.355 333.414L627.12 378.084Z" fill="white"/>
<path d="M753.433 382.784C758.519 374.478 764.338 355.823 767.229 346.406C771.34 333.038 764.686 324.627 757.126 324.281C752.405 324.912 736.849 373.682 736.849 373.682C735.107 374.869 711.468 385.217 703.873 387.816C702.515 388.259 701.015 388.259 699.657 387.816C696.016 386.674 693.525 386.885 689.954 386.584C687.15 386.344 685.739 385.488 685.373 385.998C685.041 386.632 684.998 387.351 685.253 388.011C685.508 388.67 686.042 389.223 686.749 389.558C688.287 390.33 689.924 390.945 691.627 391.391C688.574 392.189 685.392 392.559 682.202 392.487C674.886 392.352 672.256 395.086 677.934 401.499C681.418 405.494 687.184 406.756 700.058 402.926C703.751 401.815 708.768 399.667 713.454 398.21C723.104 395.206 725.648 394.845 732.999 392.697C743.712 389.573 751.168 386.479 753.433 382.784Z" fill="#FFA8A7"/>
<path d="M754.286 323.02C758.728 323.545 762.996 324.401 765.627 327.526C768.257 330.65 770.365 335.036 767.787 346.976C765.812 355.374 763.17 363.645 759.878 371.729C759.878 371.729 749.531 375.544 738.539 365.872L746.099 340.668C746.099 340.668 747.318 324.281 754.286 323.02Z" fill="#455A64"/>
</svg>
